<svg id="visual" viewBox="0 0 1800 945" width="1800" height="945" xmlns="http://www.w3.org/2000/svg" xmlns:xlink="http://www.w3.org/1999/xlink" version="1.1"><rect x="0" y="0" width="1800" height="945" fill="#000000"></rect><defs><linearGradient id="grad1_0" x1="47.5%" y1="100%" x2="100%" y2="0%"><stop offset="11.904761904761909%" stop-color="#000000" stop-opacity="1"></stop><stop offset="88.09523809523809%" stop-color="#000000" stop-opacity="1"></stop></linearGradient></defs><defs><linearGradient id="grad2_0" x1="0%" y1="100%" x2="52.5%" y2="0%"><stop offset="11.904761904761909%" stop-color="#000000" stop-opacity="1"></stop><stop offset="88.09523809523809%" stop-color="#000000" stop-opacity="1"></stop></linearGradient></defs><g transform="translate(1800, 945)"><path d="M-425.2 0C-418.1 -53.3 -410.9 -106.5 -392.9 -162.7C-374.8 -218.9 -345.9 -278 -297.7 -297.7C-249.5 -317.4 -182.2 -297.6 -129.3 -312.3C-76.5 -327 -38.3 -376.1 0 -425.2L0 0Z" fill="#a4730f"></path></g><g transform="translate(0, 0)"><path d="M425.3 0C420.9 57.7 416.5 115.4 392.9 162.7C369.3 210.1 326.4 247.1 286.4 286.4C246.3 325.7 209.1 367.3 161.9 390.8C114.6 414.3 57.3 419.8 0 425.3L0 0Z" fill="#a4730f"></path></g></svg>