<svg id="visual" viewBox="0 0 1800 945" width="1800" height="945" xmlns="http://www.w3.org/2000/svg" xmlns:xlink="http://www.w3.org/1999/xlink" version="1.1"><rect x="0" y="0" width="1800" height="945" fill="#000000"></rect><defs><linearGradient id="grad1_0" x1="47.5%" y1="100%" x2="100%" y2="0%"><stop offset="11.904761904761909%" stop-color="#000000" stop-opacity="1"></stop><stop offset="88.09523809523809%" stop-color="#000000" stop-opacity="1"></stop></linearGradient></defs><defs><linearGradient id="grad2_0" x1="0%" y1="100%" x2="52.5%" y2="0%"><stop offset="11.904761904761909%" stop-color="#000000" stop-opacity="1"></stop><stop offset="88.09523809523809%" stop-color="#000000" stop-opacity="1"></stop></linearGradient></defs><g transform="translate(1800, 945)"><path d="M-425.2 0C-386.9 -42.1 -348.5 -84.2 -333.5 -138.1C-318.5 -192.1 -326.9 -257.8 -300.7 -300.7C-274.5 -343.6 -213.6 -363.7 -157.7 -380.6C-101.8 -397.6 -50.9 -411.4 0 -425.2L0 0Z" fill="#a4730f"></path></g><g transform="translate(0, 0)"><path d="M425.3 0C396 44.4 366.8 88.9 352 145.8C337.2 202.7 336.7 272.2 300.7 300.7C264.7 329.2 193 316.8 137 330.7C81 344.7 40.5 385 0 425.3L0 0Z" fill="#a4730f"></path></g></svg>