<svg id="visual" viewBox="0 0 1800 945" width="1800" height="945" xmlns="http://www.w3.org/2000/svg" xmlns:xlink="http://www.w3.org/1999/xlink" version="1.1"><rect width="1800" height="945" fill="#000000"></rect><g><g transform="translate(85 364)"><path d="M136 -100C178.7 -55 217.2 1.7 211.9 57.6C206.5 113.6 157.1 168.7 98.2 192.8C39.3 216.9 -29.2 209.9 -84.9 181.2C-140.6 152.5 -183.5 102.1 -196.7 44.8C-209.8 -12.6 -193.3 -76.8 -155.6 -120.7C-117.9 -164.5 -58.9 -188.1 -6.1 -183.2C46.7 -178.3 93.4 -145 136 -100Z" fill="#a4730f"></path></g><g transform="translate(649 483)"><path d="M81.1 -62.4C100.2 -40.7 107.5 -7.3 100.3 22.4C93.1 52 71.5 77.8 43.6 91.7C15.6 105.6 -18.6 107.6 -49.7 95.6C-80.9 83.5 -109 57.4 -112.7 29.1C-116.5 0.9 -95.9 -29.6 -73 -52.1C-50.2 -74.6 -25.1 -89.3 3 -91.6C31 -94 62 -84.1 81.1 -62.4Z" fill="#a4730f"></path></g><g transform="translate(1182 50)"><path d="M116.5 -92.6C143.1 -59.5 151.4 -11.5 139.8 29C128.3 69.5 96.8 102.5 60.5 116.5C24.2 130.6 -16.9 125.5 -49.4 107.9C-81.9 90.2 -105.8 59.9 -117.7 22.6C-129.7 -14.7 -129.6 -59.1 -108 -91C-86.4 -123 -43.2 -142.6 0.9 -143.3C44.9 -144 89.8 -125.7 116.5 -92.6Z" fill="#a4730f"></path></g><g transform="translate(1195 680)"><path d="M90 -76.3C109.1 -47.8 111.8 -10.9 100.9 17.4C89.9 45.6 65.3 65 38.4 77C11.4 88.9 -17.8 93.3 -41 83C-64.2 72.6 -81.2 47.5 -91.4 16.9C-101.6 -13.8 -104.9 -50 -88.5 -77.9C-72.1 -105.7 -36.1 -125.1 -0.3 -124.9C35.5 -124.7 70.9 -104.7 90 -76.3Z" fill="#a4730f"></path></g><g transform="translate(1750 238)"><path d="M141.8 -117.7C169.6 -78.2 168.2 -20.1 155.8 36.1C143.5 92.3 120.1 146.5 78.6 168.5C37.2 190.4 -22.3 180.1 -74.9 154.9C-127.4 129.8 -173.1 89.9 -188.2 38.7C-203.3 -12.4 -187.7 -74.8 -151.2 -116.3C-114.7 -157.7 -57.4 -178.3 -0.2 -178.1C57 -178 114 -157.1 141.8 -117.7Z" fill="#a4730f"></path></g><g transform="translate(1725 908)"><path d="M148.1 -125.5C176.3 -82.7 172.7 -22.1 159.8 37.2C146.9 96.5 124.6 154.5 82.8 176.2C41.1 197.9 -20.1 183.4 -63.9 154.1C-107.7 124.8 -134 80.7 -143 34.5C-152.1 -11.6 -143.7 -59.8 -117 -102.2C-90.3 -144.7 -45.1 -181.3 7.4 -187.2C59.9 -193.1 119.9 -168.3 148.1 -125.5Z" fill="#a4730f"></path></g></g></svg>