<svg id="visual" viewBox="0 0 1800 945" width="1800" height="945" xmlns="http://www.w3.org/2000/svg" xmlns:xlink="http://www.w3.org/1999/xlink" version="1.1"><rect width="1800" height="945" fill="#000000"></rect><g><g transform="translate(138 867)"><path d="M186.4 -145C226.1 -98.9 232.1 -22.3 212.6 42.6C193.1 107.5 148 160.6 93.2 183C38.3 205.3 -26.2 196.9 -75.7 168.7C-125.3 140.5 -159.8 92.4 -173.9 37.6C-188 -17.1 -181.8 -78.6 -149.5 -123C-117.1 -167.5 -58.5 -194.9 7.4 -200.8C73.3 -206.7 146.7 -191.1 186.4 -145Z" fill="#a4730f"></path></g><g transform="translate(791 866)"><path d="M124.2 -90.3C153.9 -61.9 165.8 -10.7 152.4 29.4C138.9 69.5 100.1 98.4 59.2 115.1C18.3 131.9 -24.8 136.4 -60 120.9C-95.3 105.4 -122.7 69.8 -130.7 31C-138.6 -7.9 -127.1 -50 -102.1 -77.3C-77 -104.6 -38.5 -117 4.4 -120.5C47.3 -124 94.6 -118.6 124.2 -90.3Z" fill="#a4730f"></path></g><g transform="translate(1044 124)"><path d="M144.7 -106.5C186.5 -62.9 218.7 -2.8 210.2 53.4C201.7 109.6 152.4 162 94.5 185.8C36.7 209.6 -29.9 204.9 -81.3 177C-132.6 149.1 -168.9 97.9 -176.3 45.8C-183.7 -6.3 -162.4 -59.4 -128.2 -101.1C-94 -142.9 -47 -173.4 2.2 -175.2C51.4 -176.9 102.9 -150 144.7 -106.5Z" fill="#a4730f"></path></g><g transform="translate(364 17)"><path d="M101.8 -78.7C123.6 -53.8 127.2 -12 115.8 21.9C104.5 55.8 78.2 81.8 48.5 93.1C18.9 104.5 -14.2 101.2 -42.9 87.9C-71.6 74.5 -96 51 -108.9 18.1C-121.9 -14.9 -123.3 -57.2 -103.3 -81.6C-83.2 -106 -41.6 -112.6 -0.8 -111.9C40 -111.3 80 -103.5 101.8 -78.7Z" fill="#a4730f"></path></g><g transform="translate(1412 654)"><path d="M76.4 -64.5C97.8 -34.1 113 -2.4 108.3 27.4C103.6 57.2 79 85.1 49.9 96.2C20.9 107.3 -12.7 101.6 -38.9 86.7C-65.2 71.8 -84.2 47.7 -94.6 17.3C-105 -13.1 -106.7 -49.8 -89.5 -79.2C-72.3 -108.6 -36.2 -130.7 -4.3 -127.2C27.5 -123.8 55 -94.8 76.4 -64.5Z" fill="#a4730f"></path></g><g transform="translate(1652 44)"><path d="M108 -77.8C138.2 -48.4 159.5 -3.5 149.6 31.9C139.7 67.3 98.6 93.3 54.9 114.5C11.3 135.7 -34.9 152.1 -75.7 139.3C-116.4 126.6 -151.7 84.6 -162.5 37.2C-173.3 -10.3 -159.6 -63.3 -128.4 -93C-97.3 -122.6 -48.6 -128.9 -4.8 -125.1C38.9 -121.2 77.9 -107.2 108 -77.8Z" fill="#a4730f"></path></g></g></svg>